<mxfile host="app.diagrams.net" modified="2021-12-25T12:57:46.728Z" agent="5.0 (Macintosh; Intel Mac OS X 10_15_7) AppleWebKit/537.36 (KHTML, like Gecko) Chrome/95.0.4638.69 Safari/537.36" etag="BFW_RGn42L7bhMjTNPL2" version="16.0.0" type="github">
  <diagram name="Page-1" id="74e2e168-ea6b-b213-b513-2b3c1d86103e">
    <mxGraphModel dx="2526" dy="786" grid="1" gridSize="10" guides="1" tooltips="1" connect="1" arrows="1" fold="1" page="1" pageScale="1" pageWidth="1100" pageHeight="850" background="none" math="0" shadow="0">
      <root>
        <mxCell id="0" />
        <mxCell id="1" parent="0" />
        <mxCell id="TzPy7AYL4UuAphbqVqQZ-1" value="&lt;font style=&quot;vertical-align: inherit&quot;&gt;&lt;font style=&quot;vertical-align: inherit&quot;&gt;启动页&lt;/font&gt;&lt;/font&gt;" style="rounded=0;whiteSpace=wrap;html=1;" parent="1" vertex="1">
          <mxGeometry x="-1080" y="30" width="120" height="60" as="geometry" />
        </mxCell>
        <mxCell id="TzPy7AYL4UuAphbqVqQZ-2" value="&lt;font style=&quot;vertical-align: inherit&quot;&gt;&lt;font style=&quot;vertical-align: inherit&quot;&gt;引导页&lt;/font&gt;&lt;/font&gt;" style="rounded=0;whiteSpace=wrap;html=1;" parent="1" vertex="1">
          <mxGeometry x="-520" y="30" width="120" height="60" as="geometry" />
        </mxCell>
        <mxCell id="TzPy7AYL4UuAphbqVqQZ-10" value="定位权限" style="rhombus;whiteSpace=wrap;html=1;" parent="1" vertex="1">
          <mxGeometry x="-920" y="20" width="130" height="80" as="geometry" />
        </mxCell>
        <mxCell id="TzPy7AYL4UuAphbqVqQZ-20" value="" style="endArrow=classic;html=1;rounded=0;exitX=0.5;exitY=1.05;exitDx=0;exitDy=0;exitPerimeter=0;" parent="1" source="TzPy7AYL4UuAphbqVqQZ-49" target="TzPy7AYL4UuAphbqVqQZ-22" edge="1">
          <mxGeometry width="50" height="50" relative="1" as="geometry">
            <mxPoint x="-920" y="170" as="sourcePoint" />
            <mxPoint x="69.5" y="320" as="targetPoint" />
            <Array as="points" />
          </mxGeometry>
        </mxCell>
        <mxCell id="TzPy7AYL4UuAphbqVqQZ-22" value="退出" style="rounded=0;whiteSpace=wrap;html=1;" parent="1" vertex="1">
          <mxGeometry x="-915" y="170" width="120" height="60" as="geometry" />
        </mxCell>
        <mxCell id="TzPy7AYL4UuAphbqVqQZ-29" value="" style="endArrow=classic;html=1;rounded=0;startArrow=none;exitX=1.05;exitY=0.45;exitDx=0;exitDy=0;exitPerimeter=0;entryX=0;entryY=0.5;entryDx=0;entryDy=0;" parent="1" source="TzPy7AYL4UuAphbqVqQZ-27" target="TzPy7AYL4UuAphbqVqQZ-2" edge="1">
          <mxGeometry width="50" height="50" relative="1" as="geometry">
            <mxPoint x="-410" y="60" as="sourcePoint" />
            <mxPoint x="-450" y="59" as="targetPoint" />
          </mxGeometry>
        </mxCell>
        <mxCell id="TzPy7AYL4UuAphbqVqQZ-39" value="" style="endArrow=classic;html=1;rounded=0;entryX=0;entryY=0.5;entryDx=0;entryDy=0;exitX=1;exitY=0.5;exitDx=0;exitDy=0;" parent="1" source="TzPy7AYL4UuAphbqVqQZ-1" target="TzPy7AYL4UuAphbqVqQZ-10" edge="1">
          <mxGeometry width="50" height="50" relative="1" as="geometry">
            <mxPoint x="-970" y="220" as="sourcePoint" />
            <mxPoint x="-920" y="170" as="targetPoint" />
          </mxGeometry>
        </mxCell>
        <mxCell id="TzPy7AYL4UuAphbqVqQZ-27" value="Y" style="text;html=1;align=center;verticalAlign=middle;resizable=0;points=[];autosize=1;strokeColor=none;fillColor=none;" parent="1" vertex="1">
          <mxGeometry x="-590" y="50" width="20" height="20" as="geometry" />
        </mxCell>
        <mxCell id="TzPy7AYL4UuAphbqVqQZ-44" value="Y" style="text;html=1;align=center;verticalAlign=middle;resizable=0;points=[];autosize=1;strokeColor=none;fillColor=none;" parent="1" vertex="1">
          <mxGeometry x="-770" y="50" width="20" height="20" as="geometry" />
        </mxCell>
        <mxCell id="TzPy7AYL4UuAphbqVqQZ-45" value="" style="endArrow=none;html=1;rounded=0;exitX=1;exitY=0.5;exitDx=0;exitDy=0;entryX=0;entryY=0.5;entryDx=0;entryDy=0;entryPerimeter=0;" parent="1" source="TzPy7AYL4UuAphbqVqQZ-10" target="TzPy7AYL4UuAphbqVqQZ-44" edge="1">
          <mxGeometry width="50" height="50" relative="1" as="geometry">
            <mxPoint x="-710" y="210" as="sourcePoint" />
            <mxPoint x="-660" y="160" as="targetPoint" />
          </mxGeometry>
        </mxCell>
        <mxCell id="TzPy7AYL4UuAphbqVqQZ-46" value="" style="endArrow=none;html=1;rounded=0;exitX=1;exitY=0.5;exitDx=0;exitDy=0;" parent="1" source="TzPy7AYL4UuAphbqVqQZ-23" edge="1">
          <mxGeometry width="50" height="50" relative="1" as="geometry">
            <mxPoint x="-550" y="240" as="sourcePoint" />
            <mxPoint x="-590" y="60" as="targetPoint" />
          </mxGeometry>
        </mxCell>
        <mxCell id="TzPy7AYL4UuAphbqVqQZ-23" value="首页启动" style="rhombus;whiteSpace=wrap;html=1;" parent="1" vertex="1">
          <mxGeometry x="-730" y="30" width="100" height="60" as="geometry" />
        </mxCell>
        <mxCell id="TzPy7AYL4UuAphbqVqQZ-47" value="" style="endArrow=none;html=1;rounded=0;startArrow=none;exitX=1.05;exitY=0.45;exitDx=0;exitDy=0;exitPerimeter=0;entryX=0;entryY=0.5;entryDx=0;entryDy=0;" parent="1" source="TzPy7AYL4UuAphbqVqQZ-44" target="TzPy7AYL4UuAphbqVqQZ-23" edge="1">
          <mxGeometry width="50" height="50" relative="1" as="geometry">
            <mxPoint x="-729" y="59" as="sourcePoint" />
            <mxPoint x="-650" y="60" as="targetPoint" />
          </mxGeometry>
        </mxCell>
        <mxCell id="TzPy7AYL4UuAphbqVqQZ-49" value="N" style="text;html=1;align=center;verticalAlign=middle;resizable=0;points=[];autosize=1;strokeColor=none;fillColor=none;" parent="1" vertex="1">
          <mxGeometry x="-865" y="130" width="20" height="20" as="geometry" />
        </mxCell>
        <mxCell id="TzPy7AYL4UuAphbqVqQZ-50" value="" style="endArrow=none;html=1;rounded=0;entryX=0.5;entryY=1;entryDx=0;entryDy=0;" parent="1" target="TzPy7AYL4UuAphbqVqQZ-10" edge="1">
          <mxGeometry width="50" height="50" relative="1" as="geometry">
            <mxPoint x="-855" y="130" as="sourcePoint" />
            <mxPoint x="-690" y="120" as="targetPoint" />
          </mxGeometry>
        </mxCell>
        <mxCell id="TzPy7AYL4UuAphbqVqQZ-52" value="主界面" style="rounded=0;whiteSpace=wrap;html=1;" parent="1" vertex="1">
          <mxGeometry x="-520" y="160" width="120" height="60" as="geometry" />
        </mxCell>
        <mxCell id="TzPy7AYL4UuAphbqVqQZ-53" value="" style="endArrow=classic;html=1;rounded=0;exitX=0.5;exitY=1;exitDx=0;exitDy=0;entryX=0.5;entryY=0;entryDx=0;entryDy=0;" parent="1" source="TzPy7AYL4UuAphbqVqQZ-2" target="TzPy7AYL4UuAphbqVqQZ-52" edge="1">
          <mxGeometry width="50" height="50" relative="1" as="geometry">
            <mxPoint x="-280" y="150" as="sourcePoint" />
            <mxPoint x="-230" y="100" as="targetPoint" />
          </mxGeometry>
        </mxCell>
        <mxCell id="TzPy7AYL4UuAphbqVqQZ-57" value="" style="endArrow=classic;html=1;rounded=0;entryX=0.5;entryY=0;entryDx=0;entryDy=0;exitX=0.5;exitY=1;exitDx=0;exitDy=0;" parent="1" source="TzPy7AYL4UuAphbqVqQZ-52" target="TzPy7AYL4UuAphbqVqQZ-62" edge="1">
          <mxGeometry width="50" height="50" relative="1" as="geometry">
            <mxPoint x="-460" y="240" as="sourcePoint" />
            <mxPoint x="-400" y="320" as="targetPoint" />
          </mxGeometry>
        </mxCell>
        <mxCell id="TzPy7AYL4UuAphbqVqQZ-58" value="" style="endArrow=classic;html=1;rounded=0;entryX=0.5;entryY=0;entryDx=0;entryDy=0;" parent="1" target="TzPy7AYL4UuAphbqVqQZ-61" edge="1">
          <mxGeometry width="50" height="50" relative="1" as="geometry">
            <mxPoint x="-460" y="220" as="sourcePoint" />
            <mxPoint x="-460.5" y="320" as="targetPoint" />
            <Array as="points">
              <mxPoint x="-460.5" y="280" />
            </Array>
          </mxGeometry>
        </mxCell>
        <mxCell id="TzPy7AYL4UuAphbqVqQZ-59" value="" style="endArrow=classic;html=1;rounded=0;exitX=0.5;exitY=1;exitDx=0;exitDy=0;entryX=0.433;entryY=-0.05;entryDx=0;entryDy=0;entryPerimeter=0;" parent="1" source="TzPy7AYL4UuAphbqVqQZ-52" target="TzPy7AYL4UuAphbqVqQZ-60" edge="1">
          <mxGeometry width="50" height="50" relative="1" as="geometry">
            <mxPoint x="-410" y="210" as="sourcePoint" />
            <mxPoint x="-520" y="320" as="targetPoint" />
          </mxGeometry>
        </mxCell>
        <mxCell id="TzPy7AYL4UuAphbqVqQZ-60" value="首页" style="rounded=0;whiteSpace=wrap;html=1;" parent="1" vertex="1">
          <mxGeometry x="-1080" y="320" width="120" height="60" as="geometry" />
        </mxCell>
        <mxCell id="TzPy7AYL4UuAphbqVqQZ-61" value="车主权益" style="rounded=0;whiteSpace=wrap;html=1;" parent="1" vertex="1">
          <mxGeometry x="-520" y="320" width="120" height="60" as="geometry" />
        </mxCell>
        <mxCell id="TzPy7AYL4UuAphbqVqQZ-62" value="我的" style="rounded=0;whiteSpace=wrap;html=1;" parent="1" vertex="1">
          <mxGeometry x="50" y="320" width="120" height="60" as="geometry" />
        </mxCell>
        <mxCell id="TzPy7AYL4UuAphbqVqQZ-64" value="" style="endArrow=classic;html=1;rounded=0;exitX=0.5;exitY=1;exitDx=0;exitDy=0;startArrow=none;" parent="1" source="TzPy7AYL4UuAphbqVqQZ-65" edge="1">
          <mxGeometry width="50" height="50" relative="1" as="geometry">
            <mxPoint x="-650" y="200" as="sourcePoint" />
            <mxPoint x="-530" y="200" as="targetPoint" />
            <Array as="points">
              <mxPoint x="-680" y="200" />
            </Array>
          </mxGeometry>
        </mxCell>
        <mxCell id="TzPy7AYL4UuAphbqVqQZ-65" value="N" style="text;html=1;align=center;verticalAlign=middle;resizable=0;points=[];autosize=1;strokeColor=none;fillColor=none;" parent="1" vertex="1">
          <mxGeometry x="-690" y="140" width="20" height="20" as="geometry" />
        </mxCell>
        <mxCell id="TzPy7AYL4UuAphbqVqQZ-67" value="" style="endArrow=none;html=1;rounded=0;exitX=0.5;exitY=1;exitDx=0;exitDy=0;" parent="1" source="TzPy7AYL4UuAphbqVqQZ-23" edge="1">
          <mxGeometry width="50" height="50" relative="1" as="geometry">
            <mxPoint x="-680" y="90" as="sourcePoint" />
            <mxPoint x="-680" y="140" as="targetPoint" />
            <Array as="points" />
          </mxGeometry>
        </mxCell>
        <mxCell id="MTaYHc9d6E_w-VhPbMXi-12" value="" style="endArrow=classic;html=1;rounded=0;exitX=0.5;exitY=1.05;exitDx=0;exitDy=0;exitPerimeter=0;" edge="1" parent="1" source="MTaYHc9d6E_w-VhPbMXi-13">
          <mxGeometry width="50" height="50" relative="1" as="geometry">
            <mxPoint x="45" y="630" as="sourcePoint" />
            <mxPoint x="110" y="630" as="targetPoint" />
            <Array as="points" />
          </mxGeometry>
        </mxCell>
        <mxCell id="MTaYHc9d6E_w-VhPbMXi-13" value="N" style="text;html=1;align=center;verticalAlign=middle;resizable=0;points=[];autosize=1;strokeColor=none;fillColor=none;" vertex="1" parent="1">
          <mxGeometry x="100" y="550" width="20" height="20" as="geometry" />
        </mxCell>
        <mxCell id="MTaYHc9d6E_w-VhPbMXi-14" value="" style="endArrow=none;html=1;rounded=0;entryX=0.5;entryY=1;entryDx=0;entryDy=0;" edge="1" parent="1">
          <mxGeometry width="50" height="50" relative="1" as="geometry">
            <mxPoint x="110" y="550" as="sourcePoint" />
            <mxPoint x="110" y="520" as="targetPoint" />
          </mxGeometry>
        </mxCell>
        <mxCell id="MTaYHc9d6E_w-VhPbMXi-15" value="一键登录" style="rhombus;whiteSpace=wrap;html=1;" vertex="1" parent="1">
          <mxGeometry x="45" y="440" width="130" height="80" as="geometry" />
        </mxCell>
        <mxCell id="MTaYHc9d6E_w-VhPbMXi-18" value="" style="endArrow=classic;html=1;rounded=0;exitX=0.5;exitY=1;exitDx=0;exitDy=0;entryX=0.5;entryY=0;entryDx=0;entryDy=0;" edge="1" parent="1" source="TzPy7AYL4UuAphbqVqQZ-62" target="MTaYHc9d6E_w-VhPbMXi-15">
          <mxGeometry width="50" height="50" relative="1" as="geometry">
            <mxPoint x="120" y="450" as="sourcePoint" />
            <mxPoint x="170" y="400" as="targetPoint" />
          </mxGeometry>
        </mxCell>
        <mxCell id="MTaYHc9d6E_w-VhPbMXi-21" value="去页首" style="ellipse;shape=cloud;whiteSpace=wrap;html=1;" vertex="1" parent="1">
          <mxGeometry x="410" y="440" width="120" height="80" as="geometry" />
        </mxCell>
        <mxCell id="MTaYHc9d6E_w-VhPbMXi-23" value="手机号码登录" style="rounded=0;whiteSpace=wrap;html=1;" vertex="1" parent="1">
          <mxGeometry x="55" y="630" width="120" height="60" as="geometry" />
        </mxCell>
        <mxCell id="MTaYHc9d6E_w-VhPbMXi-26" value="" style="endArrow=classic;html=1;rounded=0;exitX=1.05;exitY=0.5;exitDx=0;exitDy=0;exitPerimeter=0;" edge="1" parent="1" source="MTaYHc9d6E_w-VhPbMXi-27" target="MTaYHc9d6E_w-VhPbMXi-21">
          <mxGeometry width="50" height="50" relative="1" as="geometry">
            <mxPoint x="240" y="460" as="sourcePoint" />
            <mxPoint x="180" y="590" as="targetPoint" />
            <Array as="points" />
          </mxGeometry>
        </mxCell>
        <mxCell id="MTaYHc9d6E_w-VhPbMXi-27" value="Y" style="text;html=1;align=center;verticalAlign=middle;resizable=0;points=[];autosize=1;strokeColor=none;fillColor=none;" vertex="1" parent="1">
          <mxGeometry x="230" y="470" width="20" height="20" as="geometry" />
        </mxCell>
        <mxCell id="MTaYHc9d6E_w-VhPbMXi-28" value="" style="endArrow=none;html=1;rounded=0;entryX=1;entryY=0.5;entryDx=0;entryDy=0;" edge="1" parent="1" target="MTaYHc9d6E_w-VhPbMXi-15">
          <mxGeometry width="50" height="50" relative="1" as="geometry">
            <mxPoint x="230" y="480" as="sourcePoint" />
            <mxPoint x="190" y="480" as="targetPoint" />
          </mxGeometry>
        </mxCell>
        <mxCell id="MTaYHc9d6E_w-VhPbMXi-30" value="" style="endArrow=classic;html=1;rounded=0;exitX=1.05;exitY=0.5;exitDx=0;exitDy=0;exitPerimeter=0;entryX=0.375;entryY=0.938;entryDx=0;entryDy=0;entryPerimeter=0;" edge="1" parent="1" source="MTaYHc9d6E_w-VhPbMXi-31" target="MTaYHc9d6E_w-VhPbMXi-21">
          <mxGeometry width="50" height="50" relative="1" as="geometry">
            <mxPoint x="280" y="570" as="sourcePoint" />
            <mxPoint x="450" y="590" as="targetPoint" />
            <Array as="points" />
          </mxGeometry>
        </mxCell>
        <mxCell id="MTaYHc9d6E_w-VhPbMXi-31" value="Y" style="text;html=1;align=center;verticalAlign=middle;resizable=0;points=[];autosize=1;strokeColor=none;fillColor=none;" vertex="1" parent="1">
          <mxGeometry x="260" y="590" width="20" height="20" as="geometry" />
        </mxCell>
        <mxCell id="MTaYHc9d6E_w-VhPbMXi-32" value="" style="endArrow=none;html=1;rounded=0;entryX=1;entryY=0.5;entryDx=0;entryDy=0;" edge="1" parent="1" target="MTaYHc9d6E_w-VhPbMXi-23">
          <mxGeometry width="50" height="50" relative="1" as="geometry">
            <mxPoint x="260" y="610" as="sourcePoint" />
            <mxPoint x="215" y="590" as="targetPoint" />
          </mxGeometry>
        </mxCell>
      </root>
    </mxGraphModel>
  </diagram>
</mxfile>
